<?xml version="1.0" standalone="no"?>
<!DOCTYPE svg PUBLIC "-//W3C//DTD SVG 20010904//EN"
 "http://www.w3.org/TR/2001/REC-SVG-20010904/DTD/svg10.dtd">
<svg version="1.0" xmlns="http://www.w3.org/2000/svg"
 width="512.000000pt" height="512.000000pt" viewBox="0 0 512.000000 512.000000"
 preserveAspectRatio="xMidYMid meet">

<g transform="translate(0.000000,512.000000) scale(0.100000,-0.100000)"
fill="#000000" stroke="none">
<path d="M2320 5100 c-605 -63 -1134 -314 -1561 -740 -217 -216 -363 -422
-495 -694 -158 -328 -237 -651 -251 -1021 -14 -415 67 -806 246 -1180 133
-278 280 -485 495 -700 208 -207 387 -340 631 -466 719 -373 1568 -384 2290
-29 279 137 469 273 685 489 216 218 355 411 485 676 124 252 194 474 237 750
26 167 31 528 10 685 -64 474 -237 890 -530 1270 -96 124 -330 353 -462 452
-354 264 -739 425 -1180 493 -124 19 -477 28 -600 15z m30 -648 c32 -23 60
-78 60 -117 0 -39 -28 -94 -61 -117 -14 -11 -80 -32 -147 -48 -208 -50 -365
-116 -537 -226 -72 -45 -100 -58 -140 -61 -115 -9 -190 106 -138 215 41 86
395 270 659 343 179 49 248 52 304 11z m692 -3 c268 -68 648 -262 691 -351 35
-74 12 -156 -55 -199 -58 -36 -116 -23 -232 51 -171 108 -351 182 -551 225
-94 21 -126 35 -154 71 -43 54 -37 147 13 193 56 52 115 55 288 10z m-1874
-719 c51 -31 74 -76 69 -135 -3 -40 -14 -66 -56 -130 -106 -161 -185 -349
-235 -564 -27 -114 -45 -147 -97 -173 -99 -51 -209 21 -209 137 0 66 46 248
95 380 76 204 225 458 286 488 46 22 107 21 147 -3z m2930 3 c65 -31 227 -313
302 -528 43 -124 80 -280 80 -341 0 -115 -110 -187 -209 -136 -53 26 -70 58
-101 190 -50 208 -116 365 -226 537 -45 72 -58 100 -61 140 -9 115 106 190
215 138z m-1862 -75 c-48 -87 -103 -255 -117 -363 -44 -331 83 -681 329 -906
322 -296 795 -361 1189 -163 55 27 83 37 83 28 0 -27 -60 -178 -104 -260 -166
-311 -464 -534 -816 -610 -106 -23 -352 -26 -455 -5 -486 96 -857 460 -961
941 -26 118 -26 362 0 480 90 415 374 742 775 891 115 42 119 41 77 -33z
m-1387 -1266 c53 -26 70 -58 101 -190 50 -208 116 -365 226 -537 45 -72 58
-100 61 -140 9 -115 -106 -190 -215 -138 -65 31 -227 313 -302 528 -43 124
-80 280 -80 341 0 85 65 154 145 154 17 0 45 -8 64 -18z m3551 0 c51 -25 80
-74 80 -136 0 -61 -37 -217 -80 -341 -75 -215 -237 -497 -302 -528 -74 -35
-156 -12 -199 55 -36 58 -23 116 51 232 109 171 173 329 224 545 13 57 33 116
43 130 24 33 79 61 118 61 17 0 46 -8 65 -18z m-2726 -1222 c166 -105 323
-171 530 -220 130 -31 162 -48 188 -101 51 -99 -21 -209 -136 -209 -61 0 -217
37 -341 80 -215 75 -497 237 -528 302 -35 74 -12 156 55 199 58 36 116 23 232
-51z m2004 50 c67 -41 90 -124 55 -198 -31 -65 -313 -227 -528 -302 -124 -43
-280 -80 -341 -80 -85 0 -154 65 -154 145 0 39 28 94 61 118 14 10 73 30 130
43 209 49 370 114 529 214 47 29 96 59 110 66 36 20 100 17 138 -6z"/>
</g>
</svg>
